<svg xmlns="http://www.w3.org/2000/svg" enable-background="new 0 0 1117 979" viewBox="0 0 1117 979"><switch><g><g display="none"><path fill="#e25333" d="M813.7,416.9c-42.7-117.7-168.6-186-292.5-154.6c-123.9,31.5-201.9,151.6-183.3,275.4L813.7,416.9z" opacity=".7"/><path fill="#fff" d="M336.7 527.7c.2 1.5.3 3 .5 4.5l27.7-1.4 22.5-5.7L336.7 527.7zM335.4 509.9c.1 1.5.1 3 .2 4.6l117.1-5.9 22.5-5.7L335.4 509.9zM335.4 492.1c-.1 1.5-.1 3-.1 4.6l205.2-10.4 22.5-5.7L335.4 492.1zM336.7 474.2c-.2 1.5-.3 3.1-.5 4.6L628.2 464l22.5-5.7L336.7 474.2zM339.4 456.2c-.3 1.5-.6 3.1-.8 4.6l377.3-19.1 22.5-5.7L339.4 456.2zM342.3 442.7l461.4-23.3 10-2.5c-.3-.8-.6-1.7-.9-2.5l-469.3 23.7C343.1 439.7 342.7 441.2 342.3 442.7zM349.1 420c-.5 1.5-1.1 3.1-1.6 4.6l460-23.2c-.7-1.5-1.3-3-2-4.5L349.1 420zM356.3 401.8c-.7 1.5-1.4 3.1-2 4.7L798.9 384c-.8-1.5-1.6-3-2.5-4.4L356.3 401.8zM365.3 383.5c-.8 1.6-1.7 3.1-2.5 4.7l425.8-21.5c-1-1.5-2-3-3-4.4L365.3 383.5zM376.4 365.1c-1 1.6-2.1 3.1-3.1 4.7l403-20.4c-1.2-1.5-2.3-2.9-3.5-4.4L376.4 365.1zM390 346.5c-1.3 1.6-2.5 3.2-3.7 4.8l375.4-19c-1.4-1.5-2.8-2.9-4.2-4.4L390 346.5zM406.6 327.8c-1.6 1.6-3.1 3.2-4.6 4.8l341.9-17.3c-1.7-1.5-3.4-2.9-5.1-4.3L406.6 327.8zM427.6 308.9c-2 1.6-3.9 3.2-5.9 4.9l300.6-15.2c-2.1-1.4-4.2-2.9-6.4-4.2L427.6 308.9zM455.3 289.7c-2.7 1.6-5.4 3.3-8 5l247.6-12.5c-2.8-1.4-5.6-2.8-8.4-4.1L455.3 289.7zM497.3 269.7c-4.5 1.6-8.9 3.4-13.2 5.2l172.3-8.7c-4.5-1.4-9-2.7-13.6-3.9L497.3 269.7z"/></g><g display="none"><path fill="#e25333" d="M349.2,560.5c42.7,117.7,168.6,186,292.5,154.6C765.6,683.6,843.5,563.5,825,439.7L349.2,560.5z" opacity=".7"/><path fill="#fff" d="M826.2 449.7c-.2-1.5-.3-3-.5-4.5l-27.7 1.4-22.5 5.7L826.2 449.7zM827.5 467.5c-.1-1.5-.1-3-.2-4.6l-117.1 5.9-22.5 5.7L827.5 467.5zM827.5 485.3c.1-1.5.1-3 .1-4.6l-205.2 10.4-22.5 5.7L827.5 485.3zM826.2 503.2c.2-1.5.3-3.1.5-4.6l-291.9 14.7-22.5 5.7L826.2 503.2zM823.5 521.2c.3-1.5.6-3.1.8-4.6L447 535.7l-22.5 5.7L823.5 521.2zM820.6 534.6L359.2 558l-10 2.5c.3.8.6 1.7.9 2.5l469.3-23.7C819.8 537.7 820.2 536.2 820.6 534.6zM813.8 557.4c.5-1.5 1.1-3.1 1.6-4.6l-460 23.2c.7 1.5 1.3 3 2 4.5L813.8 557.4zM806.6 575.6c.7-1.5 1.4-3.1 2-4.7L364 593.4c.8 1.5 1.6 3 2.5 4.4L806.6 575.6zM797.6 593.9c.8-1.6 1.7-3.1 2.5-4.7l-425.8 21.5c1 1.5 2 3 3 4.4L797.6 593.9zM786.5 612.3c1-1.6 2.1-3.1 3.1-4.7l-403 20.4c1.2 1.5 2.3 2.9 3.5 4.4L786.5 612.3zM773 630.9c1.3-1.6 2.5-3.2 3.7-4.8l-375.4 19c1.4 1.5 2.8 2.9 4.2 4.4L773 630.9zM756.3 649.6c1.6-1.6 3.1-3.2 4.6-4.8L419 662c1.7 1.5 3.4 2.9 5.1 4.3L756.3 649.6zM735.3 668.5c2-1.6 3.9-3.2 5.9-4.9l-300.6 15.2c2.1 1.4 4.2 2.9 6.4 4.2L735.3 668.5zM707.6 687.7c2.7-1.6 5.4-3.3 8-5L468 695.3c2.8 1.4 5.6 2.8 8.4 4.1L707.6 687.7zM665.6 707.7c4.5-1.6 8.9-3.4 13.2-5.2l-172.3 8.7c4.5 1.4 9 2.7 13.6 3.9L665.6 707.7z"/></g><path fill="#cce9ff" d="M977.2,459.1c-0.5-14.7-1.4-29.4-2.7-44.2c-7.6-82-29.3-164.2-71.4-233.6c-3.1-5.1-6.3-10.2-9.7-15.1
				c-28.5-42.3-69.8-76.7-117.8-85.8c-39.9-7.5-80.6,3.3-116.2,22.7c-35.8,19.5-63,49.1-95.6,73.3c-89.5,66.5-212.1,67.7-298,139.5
				c-84.3,70.4-114.1,202.2-78.8,310.2C221.1,731.7,292,803.9,385.7,836h293.8C870.1,788.3,928,663.7,947.8,614.4
				C967.3,566,978.9,511.4,977.2,459.1z"/><path fill="#0b4870" stroke="#fff" stroke-miterlimit="10" stroke-width=".5" d="M510.1,182.9c2-16.1,15.8-28.6,32.4-28.6c2.3,0,4.6,0.2,6.8,0.7c2.9-25.9,24.8-46,51.5-46
					c27.1,0,49.3,20.8,51.6,47.3c2.4-0.5,5-0.7,7.5-0.7c8.8,0,16.9,2.9,23.4,7.8c6.5-11.6,18.9-19.5,33.2-19.5c21,0,38,17,38,38
					c0,0.3,0,0.6,0,1H510.1z"/><path fill="#2a94f4" d="M577 202.2c2-16.1 15.8-28.6 32.4-28.6 2.3 0 4.6.2 6.8.7 2.9-25.9 24.8-46 51.5-46 27.1 0 49.3 20.8 51.6 47.3 2.4-.5 5-.7 7.5-.7 8.8 0 16.9 2.9 23.4 7.8 6.5-11.6 18.9-19.5 33.2-19.5 21 0 38 17 38 38 0 .3 0 .6 0 1H577zM261.3 753.7c2-15.9 15.5-28.1 31.9-28.1 2.3 0 4.5.2 6.7.7 2.8-25.5 24.4-45.3 50.7-45.3 26.7 0 48.6 20.5 50.8 46.6 2.4-.5 4.9-.7 7.4-.7 8.7 0 16.6 2.9 23.1 7.7 6.4-11.4 18.6-19.2 32.7-19.2 20.7 0 37.4 16.8 37.4 37.4 0 .3 0 .6 0 1H261.3z"/><path fill="#0b4870" stroke="#fff" stroke-miterlimit="10" stroke-width=".5" d="M175,774.3c2-15.8,15.5-28.1,31.9-28.1c2.3,0,4.5,0.2,6.6,0.7c2.8-25.4,24.4-45.2,50.6-45.2
					c26.6,0,48.5,20.5,50.7,46.5c2.4-0.5,4.9-0.7,7.4-0.7c8.6,0,16.6,2.9,23,7.7c6.4-11.4,18.6-19.2,32.6-19.2
					c20.6,0,37.4,16.7,37.4,37.4c0,0.3,0,0.6,0,0.9H175z"/><path fill="#ffbe55" d="M326.4,495.2c-1.5,0-49,7.3-97.7-21.6c-48.7-29-106.3-68.4-129.8-70.2c-23.5-1.9-44.5,7-44.5,7
				s111.4,149.2,112.6,149.3c1.1,0.1,96.2-12.7,100.4-15.4c4.2-2.7,51.2-22.7,51.2-22.7L326.4,495.2z"/><path fill="#fff" d="M733.2,427c0,0-140-63.5-188.7-48.1c-34,9.3-55.2,15.1-55.2,15.1l116.1,67.9L733.2,427z"/><path fill="#f7f7f7" d="M760,480.7c19-6.8,298-68.2,292.5-111.7c-5.4-43.5-99.3-47.2-208.1-17.5c-108.8,29.7-424,115.9-522.7,142.9
				c-98.7,27-219,86.8-219,86.8l3.9,14.2c0,0,204.3,4.8,293.6-19.6C489.6,551.4,760,480.7,760,480.7z"/><path fill="#ffbe55" d="M312.5,589.6c12.6-50.1,118.4-114.4,256.2-152.1c151.9-41.5,286.6-35.5,306.2,12.8
				C818.1,466.2,767.7,478,760,480.7c0,0-270.4,70.7-359.8,95.1C376.9,582.2,345.8,586.6,312.5,589.6z"/><path fill="#d3d3d3" d="M171.2,569.6L290,533.8c0,0-2.7,30.6-14.7,58.6c-35.3,2.1-70.6,3-99.7,3.3L171.2,569.6z"/><path fill="#ffbe55" d="M290,533.8c0,0-48.8,82.2-99.6,89.4c-40.1,3.5-38.2-0.5-38.2-0.5l17.5-53.6L290,533.8z"/><path fill="#d3d3d3" d="M144.9,595.8c-23.5,0-38.3-0.4-38.3-0.4l-3.9-14.2c0,0,12.9-6.4,33.8-16L144.9,595.8z"/><path fill="#fff" d="M761.4,493.7c2.5-2-5.4-43.7-9-48.1c-3.6-4.4-41.7-8.8-99.4,27.2c-5.1,4.2-8.9,7.2-11.5,9.2
				c-2.4,1.9-3.5,5.1-2.7,8l8.7,31.7c1,3.6,4.5,6,8.3,5.6C675.3,524.9,733.3,516.3,761.4,493.7z"/><path fill="#d3d3d3" d="M641.6,481.9c2.6-2,6.4-5,11.5-9.2c36.6-22.8,65.3-29.4,82.3-30c-3.2,10.9-13.7,44.1-29.3,75.1
				c-20.7,5.4-40.4,8.2-50.3,9.3c-3.8,0.4-7.3-1.9-8.3-5.6l-8.7-31.7C638.1,487,639.2,483.8,641.6,481.9z"/><linearGradient id="a" x1="-4020.126" x2="-3990.7" y1="1132.535" y2="1132.535" gradientTransform="scale(-1 1) rotate(15.29 8.544 13323.763)" gradientUnits="userSpaceOnUse"><stop offset="0" stop-color="#fff"/><stop offset="1" stop-color="#d1daff"/></linearGradient><path fill="url(#a)" d="M640.3,514.9l19-1.3c3.4-0.2,5.7-3.5,4.8-6.8l-2.9-10.4c-0.9-3.3-4.6-4.9-7.6-3.4l-17.1,8.6
				c-2.3,1.1-3.4,3.7-2.8,6.2l0.9,3.2C635.4,513.5,637.7,515.1,640.3,514.9z"/><path fill="#0b4870" stroke="#fff" stroke-miterlimit="10" stroke-width=".5" d="M1034.6,344.6l-47.5,13c-1.4,0.4-2.9,0.2-4.2-0.5l-8.4-4.7c-2.4-1.3-1.9-4.8,0.7-5.6l37.7-10.3
				C1021.3,338.5,1028.6,341.2,1034.6,344.6z"/><path fill="#d3d3d3" d="M932.7 388.9c-1.6-.9-2.8-2.4-3.3-4.2l-8-29.1c-.5-1.8-.3-3.7.7-5.3.9-1.6 2.4-2.8 4.2-3.3l16.5-4.5c1.8-.5 3.7-.3 5.3.7 1.6.9 2.8 2.4 3.3 4.2l8 29.1c1 3.7-1.2 7.5-4.9 8.6l-16.5 4.5c-.6.2-1.2.2-1.8.2C935 389.8 933.8 389.5 932.7 388.9zM953.6 381.8c1.9-.5 3-2.5 2.5-4.4l-8-29.1c-.3-.9-.8-1.7-1.7-2.1-.8-.5-1.8-.6-2.7-.3l-16.5 4.5c-1.9.5-3 2.5-2.5 4.4l8 29.1c.3.9.8 1.7 1.7 2.1.8.5 1.8.6 2.7.3L953.6 381.8zM782.1 430.1c-1.6-.9-2.8-2.4-3.3-4.2l-8-29.1c-.5-1.8-.3-3.7.7-5.3.9-1.6 2.4-2.8 4.2-3.3l16.5-4.5c1.8-.5 3.7-.3 5.3.7 1.6.9 2.8 2.4 3.3 4.2l8 29.1c.5 1.8.3 3.7-.7 5.3-.9 1.6-2.4 2.8-4.2 3.3l-16.5 4.5c-.6.2-1.2.2-1.8.2C784.3 431 783.2 430.7 782.1 430.1zM803 422.9c.9-.2 1.7-.8 2.1-1.7.5-.8.6-1.8.3-2.7l-8-29.1c-.3-.9-.8-1.7-1.7-2.1-.8-.5-1.8-.6-2.7-.3l-16.5 4.5c-1.9.5-3 2.5-2.5 4.4l8 29.1c.3.9.8 1.7 1.7 2.1.8.5 1.8.6 2.7.3L803 422.9z"/><path fill="#fff" d="M493.9 508.9c-1.6-.9-2.8-2.4-3.3-4.2l-8-29.1c-1-3.7 1.2-7.5 4.9-8.6l16.5-4.5c1.8-.5 3.7-.3 5.3.7 1.6.9 2.8 2.4 3.3 4.2l8 29.1c.5 1.8.3 3.7-.7 5.3-.9 1.6-2.4 2.8-4.2 3.3l-16.5 4.5c-.6.2-1.2.2-1.8.2C496.2 509.8 495 509.5 493.9 508.9zM514.8 501.7c.9-.3 1.7-.8 2.1-1.7.5-.8.6-1.8.3-2.7l-8-29.1c-.2-.9-.8-1.7-1.7-2.1-.8-.5-1.8-.6-2.7-.3l-16.5 4.5c-1.9.5-3 2.5-2.5 4.4l8 29.1c.2.9.8 1.7 1.7 2.1.8.5 1.8.6 2.7.3L514.8 501.7zM907 377.4L907 377.4c1.8-.5 2.9-2.4 2.4-4.2l-1.2-4.5c-.5-1.8-2.4-2.9-4.2-2.4h0c-1.8.5-2.9 2.4-2.4 4.2l1.2 4.5C903.3 376.8 905.1 377.9 907 377.4zM895.8 380.5L895.8 380.5c1.8-.5 2.9-2.4 2.4-4.2l-1.2-4.5c-.5-1.8-2.4-2.9-4.2-2.4l0 0c-1.8.5-2.9 2.4-2.4 4.2l1.2 4.5C892 379.9 893.9 381 895.8 380.5z"/><path fill="#fff" d="M895.8 380.5L895.8 380.5c1.8-.5 2.9-2.4 2.4-4.2l-1.2-4.5c-.5-1.8-2.4-2.9-4.2-2.4l0 0c-1.8.5-2.9 2.4-2.4 4.2l1.2 4.5C892 379.9 893.9 381 895.8 380.5zM884.5 383.5L884.5 383.5c1.8-.5 2.9-2.4 2.4-4.2l-1.2-4.5c-.5-1.8-2.4-2.9-4.2-2.4v0c-1.8.5-2.9 2.4-2.4 4.2l1.2 4.5C880.8 383 882.7 384 884.5 383.5zM873.3 386.6L873.3 386.6c1.8-.5 2.9-2.4 2.4-4.2l-1.2-4.5c-.5-1.8-2.4-2.9-4.2-2.4l0 0c-1.8.5-2.9 2.4-2.4 4.2l1.2 4.5C869.6 386 871.5 387.1 873.3 386.6zM862.1 389.7L862.1 389.7c1.8-.5 2.9-2.4 2.4-4.2l-1.2-4.5c-.5-1.8-2.4-2.9-4.2-2.4l0 0c-1.8.5-2.9 2.4-2.4 4.2l1.2 4.5C858.4 389.1 860.3 390.2 862.1 389.7zM850.9 392.7L850.9 392.7c1.8-.5 2.9-2.4 2.4-4.2l-1.2-4.5c-.5-1.8-2.4-2.9-4.2-2.4l0 0c-1.8.5-2.9 2.4-2.4 4.2l1.2 4.5C847.2 392.2 849.1 393.2 850.9 392.7zM839.7 395.8L839.7 395.8c1.8-.5 2.9-2.4 2.4-4.2l-1.2-4.5c-.5-1.8-2.4-2.9-4.2-2.4l0 0c-1.8.5-2.9 2.4-2.4 4.2l1.2 4.5C836 395.2 837.9 396.3 839.7 395.8zM828.5 398.9L828.5 398.9c1.8-.5 2.9-2.4 2.4-4.2l-1.2-4.5c-.5-1.8-2.4-2.9-4.2-2.4l0 0c-1.8.5-2.9 2.4-2.4 4.2l1.2 4.5C824.8 398.3 826.7 399.4 828.5 398.9zM763 416.8L763 416.8c1.8-.5 2.9-2.4 2.4-4.2l-1.2-4.5c-.5-1.8-2.4-2.9-4.2-2.4l0 0c-1.8.5-2.9 2.4-2.4 4.2l1.2 4.5C759.3 416.2 761.2 417.3 763 416.8zM751.8 419.8L751.8 419.8c1.8-.5 2.9-2.4 2.4-4.2l-1.2-4.5c-.5-1.8-2.4-2.9-4.2-2.4l0 0c-1.8.5-2.9 2.4-2.4 4.2l1.2 4.5C748.1 419.3 749.9 420.3 751.8 419.8z"/><path fill="#fff" d="M751.8 419.8L751.8 419.8c1.8-.5 2.9-2.4 2.4-4.2l-1.2-4.5c-.5-1.8-2.4-2.9-4.2-2.4l0 0c-1.8.5-2.9 2.4-2.4 4.2l1.2 4.5C748.1 419.3 749.9 420.3 751.8 419.8zM740.6 422.9L740.6 422.9c1.8-.5 2.9-2.4 2.4-4.2l-1.2-4.5c-.5-1.8-2.4-2.9-4.2-2.4l0 0c-1.8.5-2.9 2.4-2.4 4.2l1.2 4.5C736.8 422.3 738.7 423.4 740.6 422.9zM729.3 426L729.3 426c1.8-.5 2.9-2.4 2.4-4.2l-1.2-4.5c-.5-1.8-2.4-2.9-4.2-2.4l0 0c-1.8.5-2.9 2.4-2.4 4.2l1.2 4.5C725.6 425.4 727.5 426.5 729.3 426zM718.1 429L718.1 429c1.8-.5 2.9-2.4 2.4-4.2l-1.2-4.5c-.5-1.8-2.4-2.9-4.2-2.4l0 0c-1.8.5-2.9 2.4-2.4 4.2l1.2 4.5C714.4 428.5 716.3 429.5 718.1 429zM706.9 432.1L706.9 432.1c1.8-.5 2.9-2.4 2.4-4.2l-1.2-4.5c-.5-1.8-2.4-2.9-4.2-2.4l0 0c-1.8.5-2.9 2.4-2.4 4.2l1.2 4.5C703.2 431.5 705.1 432.6 706.9 432.1zM695.7 435.2L695.7 435.2c1.8-.5 2.9-2.4 2.4-4.2l-1.2-4.5c-.5-1.8-2.4-2.9-4.2-2.4h0c-1.8.5-2.9 2.4-2.4 4.2l1.2 4.5C692 434.6 693.9 435.7 695.7 435.2zM684.5 438.2L684.5 438.2c1.8-.5 2.9-2.4 2.4-4.2l-1.2-4.5c-.5-1.8-2.4-2.9-4.2-2.4h0c-1.8.5-2.9 2.4-2.4 4.2l1.2 4.5C680.8 437.7 682.7 438.7 684.5 438.2z"/><path fill="#fff" d="M684.4 438.2L684.4 438.2c1.8-.5 2.9-2.4 2.4-4.2l-1.2-4.5c-.5-1.8-2.4-2.9-4.2-2.4l0 0c-1.8.5-2.9 2.4-2.4 4.2l1.2 4.5C680.7 437.7 682.6 438.7 684.4 438.2zM673.2 441.3L673.2 441.3c1.8-.5 2.9-2.4 2.4-4.2l-1.2-4.5c-.5-1.8-2.4-2.9-4.2-2.4l0 0c-1.8.5-2.9 2.4-2.4 4.2l1.2 4.5C669.5 440.7 671.4 441.8 673.2 441.3z"/><path fill="#fff" d="M673.2 441.3L673.2 441.3c1.8-.5 2.9-2.4 2.4-4.2l-1.2-4.5c-.5-1.8-2.4-2.9-4.2-2.4l0 0c-1.8.5-2.9 2.4-2.4 4.2l1.2 4.5C669.5 440.7 671.4 441.8 673.2 441.3zM662 444.4L662 444.4c1.8-.5 2.9-2.4 2.4-4.2l-1.2-4.5c-.5-1.8-2.4-2.9-4.2-2.4l0 0c-1.8.5-2.9 2.4-2.4 4.2l1.2 4.5C658.3 443.8 660.2 444.9 662 444.4zM650.8 447.4L650.8 447.4c1.8-.5 2.9-2.4 2.4-4.2l-1.2-4.5c-.5-1.8-2.4-2.9-4.2-2.4l0 0c-1.8.5-2.9 2.4-2.4 4.2l1.2 4.5C647.1 446.9 649 447.9 650.8 447.4zM639.6 450.5L639.6 450.5c1.8-.5 2.9-2.4 2.4-4.2l-1.2-4.5c-.5-1.8-2.4-2.9-4.2-2.4h0c-1.8.5-2.9 2.4-2.4 4.2l1.2 4.5C635.9 449.9 637.7 451 639.6 450.5zM628.4 453.6L628.4 453.6c1.8-.5 2.9-2.4 2.4-4.2l-1.2-4.5c-.5-1.8-2.4-2.9-4.2-2.4l0 0c-1.8.5-2.9 2.4-2.4 4.2l1.2 4.5C624.6 453 626.5 454.1 628.4 453.6zM617.1 456.6L617.1 456.6c1.8-.5 2.9-2.4 2.4-4.2l-1.2-4.5c-.5-1.8-2.4-2.9-4.2-2.4h0c-1.8.5-2.9 2.4-2.4 4.2l1.2 4.5C613.4 456.1 615.3 457.1 617.1 456.6zM605.9 459.7L605.9 459.7c1.8-.5 2.9-2.4 2.4-4.2l-1.2-4.5c-.5-1.8-2.4-2.9-4.2-2.4l0 0c-1.8.5-2.9 2.4-2.4 4.2l1.2 4.5C602.2 459.1 604.1 460.2 605.9 459.7zM684.4 438.2L684.4 438.2c1.8-.5 2.9-2.4 2.4-4.2l-1.2-4.5c-.5-1.8-2.4-2.9-4.2-2.4l0 0c-1.8.5-2.9 2.4-2.4 4.2l1.2 4.5C680.7 437.7 682.6 438.7 684.4 438.2z"/><path fill="#fff" d="M673.2,441.3L673.2,441.3c1.8-0.5,2.9-2.4,2.4-4.2l-1.2-4.5c-0.5-1.8-2.4-2.9-4.2-2.4l0,0
					c-1.8,0.5-2.9,2.4-2.4,4.2l1.2,4.5C669.5,440.7,671.4,441.8,673.2,441.3z"/><path fill="#fff" d="M673.2 441.3L673.2 441.3c1.8-.5 2.9-2.4 2.4-4.2l-1.2-4.5c-.5-1.8-2.4-2.9-4.2-2.4l0 0c-1.8.5-2.9 2.4-2.4 4.2l1.2 4.5C669.5 440.7 671.4 441.8 673.2 441.3zM662 444.4L662 444.4c1.8-.5 2.9-2.4 2.4-4.2l-1.2-4.5c-.5-1.8-2.4-2.9-4.2-2.4l0 0c-1.8.5-2.9 2.4-2.4 4.2l1.2 4.5C658.3 443.8 660.2 444.9 662 444.4zM650.8 447.4L650.8 447.4c1.8-.5 2.9-2.4 2.4-4.2l-1.2-4.5c-.5-1.8-2.4-2.9-4.2-2.4l0 0c-1.8.5-2.9 2.4-2.4 4.2l1.2 4.5C647.1 446.9 649 447.9 650.8 447.4zM639.6 450.5L639.6 450.5c1.8-.5 2.9-2.4 2.4-4.2l-1.2-4.5c-.5-1.8-2.4-2.9-4.2-2.4h0c-1.8.5-2.9 2.4-2.4 4.2l1.2 4.5C635.9 449.9 637.7 451 639.6 450.5zM628.4 453.6L628.4 453.6c1.8-.5 2.9-2.4 2.4-4.2l-1.2-4.5c-.5-1.8-2.4-2.9-4.2-2.4l0 0c-1.8.5-2.9 2.4-2.4 4.2l1.2 4.5C624.6 453 626.5 454.1 628.4 453.6zM617.1 456.6L617.1 456.6c1.8-.5 2.9-2.4 2.4-4.2l-1.2-4.5c-.5-1.8-2.4-2.9-4.2-2.4h0c-1.8.5-2.9 2.4-2.4 4.2l1.2 4.5C613.4 456.1 615.3 457.1 617.1 456.6zM605.9 459.7L605.9 459.7c1.8-.5 2.9-2.4 2.4-4.2l-1.2-4.5c-.5-1.8-2.4-2.9-4.2-2.4l0 0c-1.8.5-2.9 2.4-2.4 4.2l1.2 4.5C602.2 459.1 604.1 460.2 605.9 459.7z"/><path fill="#fff" d="M605.9 459.7L605.9 459.7c1.8-.5 2.9-2.4 2.4-4.2L607 451c-.5-1.8-2.4-2.9-4.2-2.4l0 0c-1.8.5-2.9 2.4-2.4 4.2l1.2 4.5C602.1 459.1 604 460.2 605.9 459.7zM594.6 462.8L594.6 462.8c1.8-.5 2.9-2.4 2.4-4.2l-1.2-4.5c-.5-1.8-2.4-2.9-4.2-2.4l0 0c-1.8.5-2.9 2.4-2.4 4.2l1.2 4.5C590.9 462.2 592.8 463.3 594.6 462.8z"/><path fill="#fff" d="M594.6 462.8L594.6 462.8c1.8-.5 2.9-2.4 2.4-4.2l-1.2-4.5c-.5-1.8-2.4-2.9-4.2-2.4l0 0c-1.8.5-2.9 2.4-2.4 4.2l1.2 4.5C590.9 462.2 592.8 463.3 594.6 462.8zM583.4 465.9L583.4 465.9c1.8-.5 2.9-2.4 2.4-4.2l-1.2-4.5c-.5-1.8-2.4-2.9-4.2-2.4l0 0c-1.8.5-2.9 2.4-2.4 4.2l1.2 4.5C579.7 465.3 581.6 466.4 583.4 465.9zM572.2 468.9L572.2 468.9c1.8-.5 2.9-2.4 2.4-4.2l-1.2-4.5c-.5-1.8-2.4-2.9-4.2-2.4l0 0c-1.8.5-2.9 2.4-2.4 4.2l1.2 4.5C568.5 468.3 570.4 469.4 572.2 468.9zM561 472L561 472c1.8-.5 2.9-2.4 2.4-4.2l-1.2-4.5c-.5-1.8-2.4-2.9-4.2-2.4l0 0c-1.8.5-2.9 2.4-2.4 4.2l1.2 4.5C557.3 471.4 559.2 472.5 561 472zM549.8 475L549.8 475c1.8-.5 2.9-2.4 2.4-4.2l-1.2-4.5c-.5-1.8-2.4-2.9-4.2-2.4l0 0c-1.8.5-2.9 2.4-2.4 4.2l1.2 4.5C546.1 474.5 548 475.5 549.8 475zM538.6 478.1L538.6 478.1c1.8-.5 2.9-2.4 2.4-4.2l-1.2-4.5c-.5-1.8-2.4-2.9-4.2-2.4l0 0c-1.8.5-2.9 2.4-2.4 4.2l1.2 4.5C534.9 477.5 536.8 478.6 538.6 478.1zM527.4 481.2L527.4 481.2c1.8-.5 2.9-2.4 2.4-4.2l-1.2-4.5c-.5-1.8-2.4-2.9-4.2-2.4l0 0c-1.8.5-2.9 2.4-2.4 4.2l1.2 4.5C523.7 480.6 525.5 481.7 527.4 481.2zM474.8 495.6L474.8 495.6c1.8-.5 2.9-2.4 2.4-4.2l-1.2-4.5c-.5-1.8-2.4-2.9-4.2-2.4l0 0c-1.8.5-2.9 2.4-2.4 4.2l1.2 4.5C471.1 495 473 496.1 474.8 495.6zM463.6 498.6L463.6 498.6c1.8-.5 2.9-2.4 2.4-4.2l-1.2-4.5c-.5-1.8-2.4-2.9-4.2-2.4l0 0c-1.8.5-2.9 2.4-2.4 4.2l1.2 4.5C459.9 498 461.7 499.1 463.6 498.6z"/><path fill="#fff" d="M463.6 498.6L463.6 498.6c1.8-.5 2.9-2.4 2.4-4.2l-1.2-4.5c-.5-1.8-2.4-2.9-4.2-2.4l0 0c-1.8.5-2.9 2.4-2.4 4.2l1.2 4.5C459.9 498 461.7 499.1 463.6 498.6zM452.4 501.7L452.4 501.7c1.8-.5 2.9-2.4 2.4-4.2l-1.2-4.5c-.5-1.8-2.4-2.9-4.2-2.4l0 0c-1.8.5-2.9 2.4-2.4 4.2l1.2 4.5C448.6 501.1 450.5 502.2 452.4 501.7zM441.1 504.8L441.1 504.8c1.8-.5 2.9-2.4 2.4-4.2l-1.2-4.5c-.5-1.8-2.4-2.9-4.2-2.4l0 0c-1.8.5-2.9 2.4-2.4 4.2l1.2 4.5C437.4 504.2 439.3 505.3 441.1 504.8zM429.9 507.8L429.9 507.8c1.8-.5 2.9-2.4 2.4-4.2l-1.2-4.5c-.5-1.8-2.4-2.9-4.2-2.4l0 0c-1.8.5-2.9 2.4-2.4 4.2l1.2 4.5C426.2 507.2 428.1 508.3 429.9 507.8zM418.7 510.9L418.7 510.9c1.8-.5 2.9-2.4 2.4-4.2l-1.2-4.5c-.5-1.8-2.4-2.9-4.2-2.4l0 0c-1.8.5-2.9 2.4-2.4 4.2l1.2 4.5C415 510.3 416.9 511.4 418.7 510.9zM407.5 513.9L407.5 513.9c1.8-.5 2.9-2.4 2.4-4.2l-1.2-4.5c-.5-1.8-2.4-2.9-4.2-2.4l0 0c-1.8.5-2.9 2.4-2.4 4.2l1.2 4.5C403.8 513.4 405.7 514.4 407.5 513.9zM396.3 517L396.3 517c1.8-.5 2.9-2.4 2.4-4.2l-1.2-4.5c-.5-1.8-2.4-2.9-4.2-2.4l0 0c-1.8.5-2.9 2.4-2.4 4.2l1.2 4.5C392.6 516.4 394.5 517.5 396.3 517z"/><path fill="#fff" d="M396.2 517L396.2 517c1.8-.5 2.9-2.4 2.4-4.2l-1.2-4.5c-.5-1.8-2.4-2.9-4.2-2.4l0 0c-1.8.5-2.9 2.4-2.4 4.2l1.2 4.5C392.5 516.5 394.4 517.5 396.2 517zM385 520.1L385 520.1c1.8-.5 2.9-2.4 2.4-4.2l-1.2-4.5c-.5-1.8-2.4-2.9-4.2-2.4l0 0c-1.8.5-2.9 2.4-2.4 4.2l1.2 4.5C381.3 519.5 383.2 520.6 385 520.1z"/><path fill="#fff" d="M385 520.1L385 520.1c1.8-.5 2.9-2.4 2.4-4.2l-1.2-4.5c-.5-1.8-2.4-2.9-4.2-2.4l0 0c-1.8.5-2.9 2.4-2.4 4.2l1.2 4.5C381.3 519.5 383.2 520.6 385 520.1zM373.8 523.2L373.8 523.2c1.8-.5 2.9-2.4 2.4-4.2l-1.2-4.5c-.5-1.8-2.4-2.9-4.2-2.4h0c-1.8.5-2.9 2.4-2.4 4.2l1.2 4.5C370.1 522.6 372 523.7 373.8 523.2zM362.6 526.2L362.6 526.2c1.8-.5 2.9-2.4 2.4-4.2l-1.2-4.5c-.5-1.8-2.4-2.9-4.2-2.4l0 0c-1.8.5-2.9 2.4-2.4 4.2l1.2 4.5C358.9 525.7 360.8 526.7 362.6 526.2zM351.4 529.3L351.4 529.3c1.8-.5 2.9-2.4 2.4-4.2l-1.2-4.5c-.5-1.8-2.4-2.9-4.2-2.4l0 0c-1.8.5-2.9 2.4-2.4 4.2l1.2 4.5C347.7 528.7 349.5 529.8 351.4 529.3zM340.2 532.4L340.2 532.4c1.8-.5 2.9-2.4 2.4-4.2l-1.2-4.5c-.5-1.8-2.4-2.9-4.2-2.4l0 0c-1.8.5-2.9 2.4-2.4 4.2l1.2 4.5C336.4 531.8 338.3 532.9 340.2 532.4zM396.2 517L396.2 517c1.8-.5 2.9-2.4 2.4-4.2l-1.2-4.5c-.5-1.8-2.4-2.9-4.2-2.4l0 0c-1.8.5-2.9 2.4-2.4 4.2l1.2 4.5C392.5 516.5 394.4 517.5 396.2 517z"/><path fill="#fff" d="M385,520.1L385,520.1c1.8-0.5,2.9-2.4,2.4-4.2l-1.2-4.5c-0.5-1.8-2.4-2.9-4.2-2.4l0,0
					c-1.8,0.5-2.9,2.4-2.4,4.2l1.2,4.5C381.3,519.5,383.2,520.6,385,520.1z"/><path fill="#fff" d="M385 520.1L385 520.1c1.8-.5 2.9-2.4 2.4-4.2l-1.2-4.5c-.5-1.8-2.4-2.9-4.2-2.4l0 0c-1.8.5-2.9 2.4-2.4 4.2l1.2 4.5C381.3 519.5 383.2 520.6 385 520.1zM373.8 523.2L373.8 523.2c1.8-.5 2.9-2.4 2.4-4.2l-1.2-4.5c-.5-1.8-2.4-2.9-4.2-2.4h0c-1.8.5-2.9 2.4-2.4 4.2l1.2 4.5C370.1 522.6 372 523.7 373.8 523.2zM362.6 526.2L362.6 526.2c1.8-.5 2.9-2.4 2.4-4.2l-1.2-4.5c-.5-1.8-2.4-2.9-4.2-2.4l0 0c-1.8.5-2.9 2.4-2.4 4.2l1.2 4.5C358.9 525.7 360.8 526.7 362.6 526.2zM351.4 529.3L351.4 529.3c1.8-.5 2.9-2.4 2.4-4.2l-1.2-4.5c-.5-1.8-2.4-2.9-4.2-2.4l0 0c-1.8.5-2.9 2.4-2.4 4.2l1.2 4.5C347.7 528.7 349.5 529.8 351.4 529.3zM340.2 532.4L340.2 532.4c1.8-.5 2.9-2.4 2.4-4.2l-1.2-4.5c-.5-1.8-2.4-2.9-4.2-2.4l0 0c-1.8.5-2.9 2.4-2.4 4.2l1.2 4.5C336.4 531.8 338.3 532.9 340.2 532.4z"/><g><path fill="#cdd5d7" d="M306.7,560c-1.6-0.9-2.8-2.4-3.3-4.2l-8-29.1c-0.5-1.8-0.3-3.7,0.7-5.3c0.9-1.6,2.4-2.8,4.2-3.3l16.5-4.5
					c1.8-0.5,3.7-0.3,5.3,0.7c1.6,0.9,2.8,2.4,3.3,4.2l8,29.1c0.5,1.8,0.3,3.7-0.7,5.3c-0.9,1.6-2.4,2.8-4.2,3.3l-16.5,4.5
					c-0.6,0.2-1.2,0.2-1.8,0.2C308.9,560.9,307.8,560.6,306.7,560z M327.6,552.9c1.9-0.5,3-2.5,2.5-4.4l-8-29.1
					c-0.3-0.9-0.8-1.7-1.7-2.1c-0.8-0.5-1.8-0.6-2.7-0.3l-16.5,4.5c-1.9,0.5-3,2.5-2.5,4.4l8,29.1c0.3,0.9,0.8,1.7,1.7,2.1
					c0.8,0.5,1.8,0.6,2.7,0.3L327.6,552.9z"/></g><path fill="#fff" d="M736.5,439c0,0-88.3,125.9-138,137.4c-34,9.3-55.2,15.1-55.2,15.1L608.6,474L736.5,439z"/><g><line x1="917" x2="788.5" y1="505" y2="538.5" fill="none" stroke="#2a94f4" stroke-miterlimit="10" stroke-width="3"/><line x1="886" x2="780.5" y1="532" y2="559.5" fill="none" stroke="#2a94f4" stroke-miterlimit="10" stroke-width="3"/><line x1="940" x2="834.5" y1="482" y2="509.5" fill="none" stroke="#2a94f4" stroke-miterlimit="10" stroke-width="3"/><line x1="777" x2="752.5" y1="541" y2="547.5" fill="none" stroke="#2a94f4" stroke-miterlimit="10" stroke-width="3"/></g><g><line x1="484" x2="355.5" y1="330" y2="363.5" fill="none" stroke="#2a94f4" stroke-miterlimit="10" stroke-width="3"/><line x1="453" x2="347.5" y1="357" y2="384.5" fill="none" stroke="#2a94f4" stroke-miterlimit="10" stroke-width="3"/><line x1="507" x2="401.5" y1="307" y2="334.5" fill="none" stroke="#2a94f4" stroke-miterlimit="10" stroke-width="3"/><line x1="344" x2="319.5" y1="366" y2="372.5" fill="none" stroke="#2a94f4" stroke-miterlimit="10" stroke-width="3"/></g></g></switch></svg>